<?xml version="1.0" encoding="iso-8859-1"?>
<!-- Generator: Adobe Illustrator 19.0.0, SVG Export Plug-In . SVG Version: 6.00 Build 0)  -->
<svg version="1.1" id="Layer_1" xmlns="http://www.w3.org/2000/svg" xmlns:xlink="http://www.w3.org/1999/xlink" x="0px" y="0px"
	 viewBox="0 0 512 512" style="enable-background:new 0 0 512 512;" xml:space="preserve">
<path style="fill:#A4A9AD;" d="M257.672,74.777c0-6.008-4.916-10.923-10.923-10.923h-135.21c-6.008,0-10.923,4.916-10.923,10.923
	v39.013c0,6.008,4.916,10.923,10.923,10.923h135.209c6.008,0,10.923-4.916,10.923-10.923V74.777H257.672z"/>
<rect x="100.616" y="91.298" style="opacity:0.2;enable-background:new    ;" width="157.058" height="9.742"/>
<rect x="44.961" y="124.713" style="fill:#FFB819;" width="282.033" height="331.014"/>
<rect x="44.961" y="276.353" style="opacity:0.1;enable-background:new    ;" width="57.644" height="27.74"/>
<rect x="246.128" y="347.41" style="opacity:0.1;enable-background:new    ;" width="57.644" height="27.74"/>
<rect x="174.382" y="148.385" style="opacity:0.1;enable-background:new    ;" width="57.644" height="27.74"/>
<rect x="217.301" y="243.659" style="opacity:0.1;enable-background:new    ;" width="57.644" height="27.74"/>
<rect x="68.873" y="169.62" style="opacity:0.1;enable-background:new    ;" width="57.644" height="27.74"/>
<rect x="65.54" y="407.752" style="opacity:0.1;enable-background:new    ;" width="57.644" height="27.74"/>
<rect x="104.134" y="327.639" style="opacity:0.1;enable-background:new    ;" width="57.644" height="27.74"/>
<path style="fill:#333E48;" d="M228.691,333.301c0-27.364-22.183-49.548-49.548-49.548s-49.547,22.184-49.547,49.548v85.89h99.096
	v-85.89H228.691z"/>
<path style="fill:#F2D383;" d="M115.792,443.415v-18.762c0-3.004,2.458-5.462,5.462-5.462h115.78c3.004,0,5.462,2.458,5.462,5.462
	v18.762H115.792z"/>
<g>
	<path style="fill:#FFFFFF;" d="M203.203,333.301c0-13.287-10.772-24.059-24.06-24.059c-13.287,0-24.059,10.772-24.059,24.059
		H203.203z"/>
	<path style="fill:#FFFFFF;" d="M274.021,207.064c0-3.004-2.458-5.462-5.462-5.462H89.729c-3.004,0-5.462,2.458-5.462,5.462v35.345
		c0,3.004,2.458,5.462,5.462,5.462H268.56c3.004,0,5.462-2.458,5.462-5.462v-35.345H274.021z"/>
</g>
<path style="opacity:0.2;enable-background:new    ;" d="M268.559,201.603H89.729c-3.004,0-5.462,2.458-5.462,5.462v15.982
	c0-3.004,2.458-5.462,5.462-5.462H268.56c3.004,0,5.462,2.458,5.462,5.462v-15.982C274.021,204.06,271.563,201.603,268.559,201.603z
	"/>
<rect x="170.952" y="201.604" style="fill:#333E48;" width="16.385" height="46.272"/>
<path style="fill:#D68231;" d="M268.559,256.064H89.729c-7.53,0-13.654-6.125-13.654-13.654v-35.345
	c0-7.53,6.125-13.654,13.654-13.654H268.56c7.53,0,13.654,6.125,13.654,13.654v35.345
	C282.214,249.939,276.089,256.064,268.559,256.064z M92.46,239.679h173.37v-29.883H92.46V239.679z"/>
<rect x="44.961" y="124.713" style="opacity:0.1;enable-background:new    ;" width="282.033" height="39.412"/>
<path style="fill:#D68231;" d="M327.001,111.968c0-6.008-4.916-10.923-10.923-10.923H42.209c-6.008,0-10.923,4.916-10.923,10.923
	v25.489c0,6.008,4.916,10.923,10.923,10.923h273.869c6.008,0,10.923-4.916,10.923-10.923v-25.489H327.001z"/>
<rect x="287.91" y="101.042" style="opacity:0.1;enable-background:new    ;" width="39.092" height="354.675"/>
<rect x="303.771" y="82.385" style="fill:#F2D383;" width="167.61" height="373.343"/>
<rect x="303.771" y="276.015" style="opacity:0.1;enable-background:new    ;" width="57.644" height="27.74"/>
<rect x="400.99" y="393.89" style="opacity:0.1;enable-background:new    ;" width="57.644" height="27.74"/>
<rect x="413.738" y="199.375" style="opacity:0.1;enable-background:new    ;" width="57.644" height="27.74"/>
<rect x="316.158" y="143.447" style="opacity:0.1;enable-background:new    ;" width="57.644" height="27.74"/>
<rect x="395.9" y="91.298" style="opacity:0.1;enable-background:new    ;" width="57.644" height="27.74"/>
<rect x="303.771" y="82.385" style="opacity:0.1;enable-background:new    ;" width="167.61" height="25.12"/>
<path style="fill:#FFFFFF;" d="M423.001,161.164c0-19.564-15.861-35.425-35.425-35.425c-19.564,0-35.424,15.861-35.424,35.425v80.07
	H423v-80.07H423.001z"/>
<path style="opacity:0.2;enable-background:new    ;" d="M387.576,125.739c-19.564,0-35.424,15.861-35.424,35.425v15.109
	c0-19.564,15.86-35.423,35.424-35.423c19.564,0,35.425,15.859,35.425,35.423v-15.109C423.001,141.6,407.141,125.739,387.576,125.739
	z"/>
<rect x="352.151" y="161.165" style="opacity:0.2;enable-background:new    ;" width="70.848" height="17.652"/>
<rect x="352.151" y="193.007" style="fill:#333E48;" width="70.848" height="16.385"/>
<path style="fill:#D68231;" d="M387.577,117.547c-24.05,0-43.616,19.566-43.616,43.617v80.07c0,4.526,3.667,8.193,8.193,8.193
	h70.848c4.526,0,8.193-3.667,8.193-8.193v-80.07C431.194,137.113,411.627,117.547,387.577,117.547z M387.577,133.932
	c12.162,0,22.485,8.015,25.971,19.04h-51.94C365.092,141.947,375.415,133.932,387.577,133.932z M414.808,233.042h-54.462v-63.685
	h54.462V233.042z"/>
<path style="fill:#FFFFFF;" d="M423.001,319.19c0-19.564-15.861-35.423-35.425-35.423c-19.564,0-35.424,15.859-35.424,35.423v80.072
	H423V319.19H423.001z"/>
<path style="opacity:0.2;enable-background:new    ;" d="M387.576,283.767c-19.564,0-35.424,15.859-35.424,35.423v15.112
	c0-19.564,15.86-35.425,35.424-35.425c19.564,0,35.425,15.861,35.425,35.425V319.19
	C423.001,299.626,407.141,283.767,387.576,283.767z"/>
<rect x="352.151" y="319.184" style="opacity:0.2;enable-background:new    ;" width="70.848" height="17.652"/>
<rect x="352.151" y="351.037" style="fill:#333E48;" width="70.848" height="16.385"/>
<path style="fill:#D68231;" d="M387.577,275.574c-24.05,0-43.616,19.565-43.616,43.615v80.072c0,4.526,3.667,8.193,8.193,8.193
	h70.848c4.526,0,8.193-3.667,8.193-8.193V319.19C431.194,295.139,411.627,275.574,387.577,275.574z M387.577,291.96
	c12.161,0,22.484,8.013,25.971,19.037h-51.939C365.093,299.974,375.415,291.96,387.577,291.96z M414.808,391.069h-54.462v-63.687
	h54.462V391.069z"/>
<path style="fill:#A4A9AD;" d="M512,463.621c0,2.426-1.984,4.412-4.412,4.412H4.412c-2.427,0-4.412-1.986-4.412-4.412v-15.792
	c0-2.428,1.985-4.414,4.412-4.414h503.176c2.428,0,4.412,1.986,4.412,4.414V463.621z"/>
<path style="fill:#D68231;" d="M483.965,54.89c0-6.008-4.916-10.923-10.923-10.923H302.111c-6.008,0-10.923,4.916-10.923,10.923
	v25.489c0,6.008,4.916,10.923,10.923,10.923h170.931c6.008,0,10.923-4.916,10.923-10.923V54.89z"/>
<path style="fill:#D1D3D3;" d="M507.588,443.415H280.031v24.618h227.556c2.428,0,4.412-1.986,4.412-4.412v-15.792
	C512,445.401,510.015,443.415,507.588,443.415z"/>
<g>
</g>
<g>
</g>
<g>
</g>
<g>
</g>
<g>
</g>
<g>
</g>
<g>
</g>
<g>
</g>
<g>
</g>
<g>
</g>
<g>
</g>
<g>
</g>
<g>
</g>
<g>
</g>
<g>
</g>
</svg>
