<?xml version="1.0" encoding="iso-8859-1"?>
<!-- Generator: Adobe Illustrator 16.0.0, SVG Export Plug-In . SVG Version: 6.00 Build 0)  -->
<!DOCTYPE svg PUBLIC "-//W3C//DTD SVG 1.1//EN" "http://www.w3.org/Graphics/SVG/1.1/DTD/svg11.dtd">
<svg version="1.1" id="Capa_1" xmlns="http://www.w3.org/2000/svg" xmlns:xlink="http://www.w3.org/1999/xlink" x="0px" y="0px"
	 width="484.506px" height="484.506px" viewBox="0 0 484.506 484.506" style="enable-background:new 0 0 484.506 484.506;"
	 xml:space="preserve">
<g>
	<g>
		<path d="M11.565,271.399h436.86c5.703,0,10.318-4.629,10.318-10.342c0-5.708-4.615-10.342-10.318-10.342H11.565
			c-5.703,0-10.324,4.625-10.324,10.342S5.862,271.399,11.565,271.399z"/>
		<path d="M11.156,338.783h56.883v-20.671H11.156c-5.717,0-10.34,4.625-10.34,10.343C0.816,334.158,5.439,338.783,11.156,338.783z"
			/>
		<path d="M10.522,439.858h57.529v-20.666H10.522c-5.682,0-10.321,4.625-10.321,10.333C0.201,435.237,4.84,439.858,10.522,439.858z"
			/>
		<path d="M10.732,406.167h57.307v-20.666H10.732c-5.703,0-10.324,4.629-10.324,10.342C0.417,401.551,5.029,406.167,10.732,406.167z
			"/>
		<path d="M10.965,372.47h57.085v-20.651H10.965c-5.736,0-10.342,4.616-10.342,10.323C0.623,367.845,5.229,372.47,10.965,372.47z"/>
		<rect x="164.916" y="351.818" width="87.822" height="20.651"/>
		<path d="M399.7,310.995c-46.871,0-84.814,37.98-84.814,84.834c0,46.866,37.952,84.833,84.814,84.833
			c46.853,0,84.806-37.967,84.806-84.833C484.506,348.976,446.553,310.995,399.7,310.995z M462.02,385.641
			c0.724,3.267-1.316,6.511-4.588,7.253c-0.392,0.093-4.289,0.942-9.437,0.942c-6.595,0-15.2-1.451-21.165-7.621l-15.84,9.147
			l16.619,9.596c10.827-9.563,28.73-6.39,29.599-6.24c3.304,0.616,5.47,3.79,4.845,7.094c-0.598,3.295-3.734,5.47-7.057,4.863
			c-0.215-0.028-8.938-1.433-15.509,1.139l10.585,6.1c2.902,1.686,3.896,5.405,2.23,8.312c-1.134,1.951-3.188,3.024-5.288,3.024
			c-1.008,0-2.081-0.243-3.01-0.817l-11.537-6.632c0.243,7.351,7.057,14.963,7.127,15.052c2.286,2.464,2.142,6.314-0.317,8.592
			c-1.182,1.102-2.651,1.629-4.14,1.629c-1.629,0-3.253-0.667-4.453-1.946c-0.644-0.686-13.721-15.168-9.53-29.869l-15.821-9.134
			v19.196c13.68,4.583,19.91,21.674,20.199,22.49c1.097,3.174-0.546,6.651-3.71,7.775c-0.672,0.247-1.363,0.354-2.021,0.354
			c-2.496,0-4.872-1.577-5.74-4.056c-0.069-0.158-3.22-8.442-8.728-12.848v12.204c0,3.355-2.726,6.086-6.09,6.086
			c-3.36,0-6.067-2.73-6.067-6.086v-13.273c-6.203,3.911-9.456,13.591-9.488,13.717c-1.008,3.183-4.443,4.971-7.636,3.962
			c-3.206-0.994-4.97-4.405-3.976-7.598c0.266-0.868,6.263-19.448,21.1-23.172v-19.242l-15.103,8.731
			c3.547,14.422-8.616,28.903-9.223,29.59c-1.204,1.4-2.902,2.128-4.606,2.128c-1.409,0-2.818-0.499-3.972-1.47
			c-2.543-2.185-2.852-6.03-0.662-8.578c0.088-0.094,6.258-7.654,6.902-14.996l-12.835,7.393c-0.966,0.565-2.002,0.817-3.047,0.817
			c-2.101,0-4.14-1.073-5.251-3.024c-1.703-2.907-0.69-6.627,2.212-8.312l12.76-7.369c-6.482-2.823-15.615-0.934-15.719-0.905
			c-3.285,0.747-6.51-1.302-7.271-4.583c-0.747-3.29,1.312-6.534,4.578-7.285c0.896-0.191,19.317-4.187,30.032,6.062l14.692-8.484
			l-14.337-8.266c-6.422,6.133-15.616,7.485-22.188,7.485c-4.41,0-7.617-0.555-7.972-0.63c-3.304-0.616-5.475-3.789-4.863-7.099
			c0.611-3.285,3.767-5.488,7.075-4.863c0.211,0.042,9.806,1.578,16.438-1.544l-12.829-7.393c-2.898-1.686-3.902-5.405-2.208-8.317
			c1.671-2.903,5.396-3.896,8.316-2.212l12.699,7.346c-0.788-6.996-6.968-13.964-7.037-14.062c-2.269-2.465-2.11-6.314,0.373-8.597
			c2.464-2.255,6.277-2.109,8.564,0.354c0.597,0.653,13.272,14.622,9.768,29.034l14.692,8.475v-16.465
			c-14.268-4.149-20.727-21.931-21.025-22.757c-1.115-3.174,0.536-6.66,3.71-7.767c3.174-1.124,6.628,0.537,7.762,3.692
			c0.07,0.173,3.523,9.273,9.559,13.46v-14.809c0-3.352,2.711-6.082,6.071-6.082s6.091,2.73,6.091,6.082v14.696
			c5.646-4.2,8.615-13.012,8.634-13.138c1.026-3.192,4.425-4.976,7.636-3.972c3.196,1.003,4.988,4.396,3.995,7.607
			c-0.267,0.854-6.035,18.794-20.265,22.985v15.998l15.789-9.128c-2.885-14.146,8.834-28.068,9.398-28.74
			c2.194-2.548,6.03-2.838,8.578-0.653c2.544,2.17,2.843,6.007,0.673,8.545c-0.089,0.104-5.722,6.987-6.781,13.979l10.585-6.086
			c2.902-1.689,6.613-0.691,8.288,2.212c1.704,2.912,0.7,6.632-2.212,8.317l-11.5,6.631c6.482,3.402,16.479,1.382,16.605,1.363
			C458.011,380.297,461.273,382.364,462.02,385.641z"/>
		<path d="M11.346,305.082h241.393c0-5.708,4.616-10.337,10.338-10.337h32.94v28.524h-43.273v-5.166H164.92v20.67h87.823v-5.161
			h43.273v61.876h-32.94c-5.596,0-10.086-4.452-10.268-10.007h-87.893v20.666h137.009c-0.317-3.229-0.499-6.506-0.499-9.814
			c0-10.852,1.75-21.282,4.904-31.068v-31.648h17.008c2.897-3.658,6.053-7.107,9.437-10.337H306.33v-28.53h32.937
			c5.722,0,10.347,4.63,10.347,10.338h9.642c13.129-6.23,27.746-9.819,43.231-9.819c15.509,0,30.121,3.589,43.24,9.819h2.469
			c5.703,0,10.343-4.616,10.343-10.338c0-5.708-4.64-10.333-10.343-10.333H306.33h-10.318H11.346
			c-5.699,0-10.321,4.625-10.321,10.333C1.034,300.471,5.656,305.082,11.346,305.082z"/>
		<path d="M164.916,419.192v20.666H312.99c-3.154-6.539-5.646-13.446-7.359-20.666H164.916z"/>
		<path d="M10.321,473.55h328.945c-7.183-5.979-13.497-12.941-18.795-20.661H10.321C4.62,452.889,0,457.509,0,463.217
			S4.62,473.55,10.321,473.55z"/>
		<path d="M27.141,234.913h412.01c17.123,0,21.323-9.957,9.399-22.236l-79.149-81.552c0-0.161,0.019-0.299,0.019-0.443V58.354
			c0-19.982-13.002-36.167-29.043-36.167c-16.06,0-29.043,16.186-29.043,36.167v12.968l-56.589-58.269
			c-11.924-12.279-31.255-12.279-43.189,0L17.723,212.676C5.808,224.956,10.022,234.913,27.141,234.913z M242.45,207.318
			l-6.315,4.595l2.425,7.439c0.837,2.574-0.261,3.372-2.464,1.785l-6.314-4.602l-6.336,4.602c-2.175,1.587-3.271,0.789-2.438-1.785
			l2.42-7.439l-6.333-4.595c-2.173-1.587-1.769-2.873,0.943-2.873h7.82l2.41-7.439c0.852-2.574,2.196-2.574,3.029,0l2.429,7.439
			h7.82C244.228,204.437,244.65,205.731,242.45,207.318z M298.751,204.437h7.822l2.427-7.439c0.836-2.576,2.18-2.576,3.029,0
			l2.413,7.439h7.817c2.711,0,3.117,1.295,0.942,2.873l-6.333,4.597l2.427,7.439c0.835,2.571-0.262,3.37-2.445,1.783l-6.334-4.602
			l-6.319,4.602c-2.188,1.587-3.285,0.789-2.454-1.783l2.417-7.439l-6.314-4.597C295.643,205.731,296.072,204.437,298.751,204.437z
			 M192.897,80.521h20.689v35.26h34.149v-35.26h20.708v91.746h-20.717v-38.377h-34.149v38.377h-20.68V80.521z M137.284,204.437h7.82
			l2.42-7.439c0.833-2.576,2.175-2.576,3.027,0l2.41,7.439h7.82c2.709,0,3.118,1.295,0.936,2.873l-6.336,4.597l2.429,7.439
			c0.833,2.571-0.261,3.37-2.438,1.783l-6.335-4.592l-6.314,4.602c-2.194,1.587-3.291,0.789-2.458-1.785l2.429-7.439l-6.317-4.595
			C134.167,205.731,134.591,204.437,137.284,204.437z"/>
	</g>
</g>
<g>
</g>
<g>
</g>
<g>
</g>
<g>
</g>
<g>
</g>
<g>
</g>
<g>
</g>
<g>
</g>
<g>
</g>
<g>
</g>
<g>
</g>
<g>
</g>
<g>
</g>
<g>
</g>
<g>
</g>
</svg>
